HIERARCHY
ROOT simHips
{
  OFFSET 139.304 97.4441 -24.0387
  CHANNELS 6 Xposition Yposition Zposition Zrotation Xrotation Yrotation
  JOINT simSpine
  {
    OFFSET -0.000355721 21.3001 -0.016921
    CHANNELS 3 Zrotation Xrotation Yrotation
    JOINT simLeftArm
    {
      OFFSET 13.5181 21.3012 0
      CHANNELS 3 Zrotation Xrotation Yrotation
      JOINT simLeftForeArm
      {
        OFFSET 24.5783 0 0
        CHANNELS 3 Zrotation Xrotation Yrotation
        JOINT simLeftHand
        {
          OFFSET 24.5783 0 0
          CHANNELS 3 Zrotation Xrotation Yrotation
          End Site
          {
            OFFSET 7.32568 1.52588e-05 0.0169305
          }
        }
      }
    }
    JOINT simHead
    {
      OFFSET 0 27.4458 -0.00489235
      CHANNELS 3 Zrotation Xrotation Yrotation
      End Site
      {
        OFFSET 0 0 0
      }
    }
    JOINT simRightArm
    {
      OFFSET -13.5174 21.3012 0
      CHANNELS 3 Zrotation Xrotation Yrotation
      JOINT simRightForeArm
      {
        OFFSET -24.5783 0 0
        CHANNELS 3 Zrotation Xrotation Yrotation
        JOINT simRightHand
        {
          OFFSET -24.5783 0 0
          CHANNELS 3 Zrotation Xrotation Yrotation
          End Site
          {
            OFFSET -7.32568 1.52588e-05 0.0169305
          }
        }
      }
    }
  }
  JOINT simRightUpLeg
  {
    OFFSET -8.44614 -9.41038 0.835684
    CHANNELS 3 Zrotation Xrotation Yrotation
    JOINT simRightLeg
    {
      OFFSET 0 -40.9639 0
      CHANNELS 3 Zrotation Xrotation Yrotation
      JOINT simRightFoot
      {
        OFFSET 0 -40.9639 0
        CHANNELS 3 Zrotation Xrotation Yrotation
        End Site
        {
          OFFSET 0.50614 -9.67405 14.6709
        }
      }
    }
  }
  JOINT simLeftUpLeg
  {
    OFFSET 8.44614 -9.41038 0.835684
    CHANNELS 3 Zrotation Xrotation Yrotation
    JOINT simLeftLeg
    {
      OFFSET 0 -40.9639 0
      CHANNELS 3 Zrotation Xrotation Yrotation
      JOINT simLeftFoot
      {
        OFFSET 0 -40.9639 0
        CHANNELS 3 Zrotation Xrotation Yrotation
        End Site
        {
          OFFSET -0.50614 -9.67405 14.6709
        }
      }
    }
  }
}
MOTION
Frames:	9
Frame Time:	0.0333333
-29.6778 83.7955 2.86301 3.1655 4.35446 -11.5723 -2.50498 2.03039 5.77647 -78.7449 26.5009 -1.84901 -0.000371202 -6.0591e-05 -4.22205 -3.92486 -2.17666 4.00306 -18.123 14.5951 21.7677 64.1282 37.5709 -2.49099 -0.000227667 -2.59441e-05 29.909 8.45862 -29.3354 0.9265 -6.77401 -38.4417 5.52189 -2.04658e-05 74.2474 -0.0543508 -0.914948 -53.0913 -7.26528 -4.62478 -39.1166 -5.51696 -0.000481364 74.1823 0.0321501 -4.60657 -43.7539 -2.53973 
-31.8391 83.9653 2.73274 4.83707 4.84222 -12.3814 -2.80099 1.7009 5.44157 -80.0778 25.6148 -2.12311 -0.000374103 -6.03068e-05 -6.97061 -2.38087 -5.18426 1.94014 -20.9345 16.0863 24.6963 58.7941 41.3078 -1.30051 -0.000224807 -2.40734e-05 36.4556 15.3434 -24.155 2.7765 -2.49757 -38.9241 12.6381 -0.00297523 74.687 -0.0847289 -5.95529 -53.2247 -14.5314 -4.80884 -39.2531 -6.17116 0.0010202 73.2614 0.0199549 -6.1184 -43.3469 -2.39504 
-34.0527 85.7575 3.02644 5.93746 5.45027 -12.4573 -2.78315 1.11756 4.92931 -80.3927 27.8594 -1.62782 -0.000379881 -5.93152e-05 -12.5021 -7.93551 -8.38846 -3.08775 -23.1896 17.141 26.4318 54.7726 42.5026 -2.41704 -0.00022237 -2.20665e-05 42.5011 15.03 -22.7553 2.78139 -0.877989 -37.2092 14.464 -0.0384868 71.022 -0.0982075 -10.2137 -51.134 -18.3975 -3.87356 -37.235 -6.0777 0.000990849 68.3828 -0.000334541 -7.83413 -41.208 -3.16257 
-36.5383 89.1401 3.80823 5.79233 4.28594 -12.9661 -2.34859 1.34725 4.9951 -80.7217 31.0626 -0.758006 -0.000384513 -5.8095e-05 -17.0196 -8.4737 -8.86752 -3.80014 -25.0625 19.0128 27.828 52.9877 43.9106 -6.99322 -0.000166633 -1.99398e-05 48.225 10.4586 -26.6409 0.95418 -0.481666 -31.1379 13.5421 2.45303e-05 62.4618 -0.0720303 -9.86606 -48.0103 -16.8821 -0.44538 -30.3466 -2.97626 -4.55173e-06 58.8035 -0.0199701 -9.41029 -37.1004 -4.92633 
-39.292 93.7519 4.84513 4.97451 4.00317 -13.4868 -2.13499 0.512338 5.05441 -81.3168 29.6743 0.235774 -0.000386673 -5.73892e-05 -19.1632 -6.16251 -5.91016 -2.89154 -25.8209 20.9371 29.5684 52.2064 44.7275 -11.8879 0.0210401 -1.82903e-05 52.3311 11.4283 -26.8736 0.450682 -0.244355 -23.6018 10.4815 -1.52947e-06 49.0099 -0.0432558 -9.74587 -41.0341 -13.2528 3.15564 -22.4442 -0.0773163 -0.000122132 45.4758 -0.0257257 -10.0715 -28.6758 -5.17988 
-42.2167 99.0975 5.69542 4.27764 4.14574 -12.8425 -2.43788 -0.481037 4.54822 -82.0858 26.9205 1.7187 -0.00038831 -5.6794e-05 -20.8057 -4.54834 -7.28611 -3.91527 -25.4563 23.6941 30.7843 52.5985 42.5664 -16.9158 0.00249406 -1.75492e-05 54.1026 13.2218 -25.9296 -0.356963 -0.120524 -15.4784 5.53148 -1.00258e-05 32.8537 -0.0216501 -10.3826 -28.4486 -7.93176 4.51244 -16.9106 -1.55222 -5.30554e-05 33.6161 -0.00635659 -8.54384 -12.8595 -0.233353 
-45.1749 104.322 5.96026 3.23953 4.49851 -11.0316 -2.76985 -1.09101 3.66735 -82.2779 25.7346 3.20738 -0.000389883 -5.61709e-05 -22.4017 -6.36449 -13.2788 -6.70838 -24.0799 26.8844 30.3919 54.5219 38.7695 -21.7066 -0.00050249 -1.78067e-05 53.4917 10.8651 -26.3512 -1.19291 0.912519 -11.0699 0.250887 -0.000108816 21.926 -0.0317706 -7.97121 -11.0805 -0.50178 5.99061 -14.2349 -3.71198 -2.73435e-06 23.8775 0.0330127 -10.5501 6.39126 6.94849 
-47.8372 108.729 5.92515 1.92637 4.60525 -10.6543 -2.7233 -1.59172 3.33513 -82.2398 26.5108 5.28347 -0.000391867 -5.53115e-05 -24.4407 -9.31774 -15.6828 -8.10165 -23.5125 29.5318 30.5787 56.456 36.8963 -25.0707 -0.000918698 -1.83481e-05 52.1913 8.2937 -24.8191 -1.66883 1.60223 -8.90582 -5.78538 0.00089982 14.4607 -0.020117 0.00893761 5.54037 7.14304 7.96587 -12.0848 -1.22953 -2.32205e-06 17.8007 0.0546027 -11.7465 12.8141 8.21863 
-49.8689 111.877 5.78899 1.93526 4.66056 -11.8063 -2.94606 -1.8211 3.3613 -82.897 28.0328 6.8649 -0.000393217 -5.4678e-05 -25.8468 -8.80472 -13.6211 -7.30965 -24.4627 30.5752 31.7981 57.0242 36.6222 -26.297 -0.000165392 -1.90765e-05 50.4043 8.51003 -24.463 -1.26393 0.534852 -8.24064 -8.75649 0.011865 10.3449 -0.0360883 6.43286 18.5161 11.1493 7.25535 -12.3653 1.10847 0.0103499 18.7285 0.0220566 -9.97618 11.1148 3.26625 
